#!OML:ASF F:\VICON\USERDATA\INSTALL\Justin_Nancy\Justin_Nancy.ASF
:FULLY-SPECIFIED
:DEGREES
32
root -9.23428 16.7798 -24.3505 2.25429 -10.3629 -6.26975
lowerback 5.82869 1.64937 2.80517
upperback -0.963382 2.55847 3.71682
thorax -4.31973 1.2457 2.03516
lowerneck -16.8947 -3.10947 -8.88893
upperneck 19.0152 -3.42693 6.65805
head 9.0218 -1.54416 3.32099
rclavicle -8.08805e-015 -4.37326e-014
rhumerus -24.7346 -2.69743 -80.2001
rradius 39.8537
rwrist 2.05884
rhand -16.48 12.1747
rfingers 7.12502
rthumb 9.73712 -17.5803
lclavicle -8.08805e-015 -4.37326e-014
lhumerus -41.1038 10.1384 85.2043
lradius 20.499
lwrist -13.355
lhand -9.93748 28.0242
lfingers 7.12502
lthumb 16.0439 57.3799
rfemur 15.7948 7.08015 31.6248
rtibia 15.6811
rfoot -19.0296 -6.01673
rtoes -5.2302
lfemur -37.0313 -7.01357 -7.45606
ltibia 18.2069
lfoot -8.24101 15.1152
ltoes -4.96235
33
root -9.22615 16.7543 -24.0765 2.40097 -10.6508 -6.28034
lowerback 5.7567 1.66162 2.71372
upperback -1.18826 2.57873 3.78287
thorax -4.52113 1.25746 2.15306
lowerneck -16.5345 -2.99838 -9.02226
upperneck 19.0389 -3.27014 6.65395
head 8.95311 -1.48747 3.36368
rclavicle 4.32108e-014 -1.19271e-015
rhumerus -24.6555 -2.81849 -80.0374
rradius 39.6404
rwrist 2.414
rhand -16.6219 11.9941
rfingers 7.12502
rthumb 9.6002 -17.7672
lclavicle 4.32108e-014 -1.19271e-015
lhumerus -41.6955 11.2886 84.6717
lradius 19.9666
lwrist -13.5724
lhand -10.6544 27.7052
lfingers 7.12502
lthumb 15.3534 57.1152
rfemur 16.7613 7.13817 31.3833
rtibia 15.4854
rfoot -18.7913 -5.43559
rtoes -6.69046
lfemur -37.1624 -7.01905 -7.20503
ltibia 17.7704
lfoot -8.86316 15.6264
ltoes -6.09921
34
root -9.21798 16.7299 -23.8032 2.50299 -10.7203 -6.2458
lowerback 5.75015 1.64802 2.71564
upperback -1.35491 2.56639 3.72411
thorax -4.68818 1.24911 2.0907
lowerneck -16.6794 -2.85022 -9.12363
upperneck 19.4862 -3.1067 6.93616
head 9.12435 -1.38963 3.50812
rclavicle 3.45264e-014 1.51076e-014
rhumerus -24.5764 -3.21431 -79.9577
rradius 39.5692
rwrist 2.34821
rhand -16.5861 11.6783
rfingers 7.12502
rthumb 9.63469 -18.0814
lclavicle 3.45264e-014 1.51076e-014
lhumerus -42.1016 12.5632 83.8075
lradius 19.3751
lwrist -14.5965
lhand -10.5886 28.1542
lfingers 7.12502
lthumb 15.4167 57.5593
rfemur 17.6751 7.08771 31.1431
rtibia 15.3915
rfoot -18.0165 -4.89914
rtoes -9.67203
lfemur -37.3445 -5.66735 -7.95734
ltibia 17.9248
lfoot -8.68879 14.0474
ltoes -6.65194
35
root -9.2074 16.706 -23.5194 2.39273 -10.8754 -6.26638
lowerback 5.72221 1.64123 2.81204
upperback -1.28234 2.55779 3.69792
thorax -4.59095 1.24244 2.01171
lowerneck -17.0221 -2.80617 -9.30587
upperneck 19.858 -3.03068 7.15477
head 9.3151 -1.34145 3.63259
rclavicle 6.51082e-014 2.14687e-014
rhumerus -24.3259 -3.63817 -79.8777
rradius 39.497
rwrist 2.408
rhand -16.8212 11.1393
rfingers 7.12502
rthumb 9.40783 -18.6307
lclavicle 6.51082e-014 2.14687e-014
lhumerus -42.4572 13.561 83.2135
lradius 18.9593
lwrist -15.1971
lhand -11.2542 27.1832
lfingers 7.12502
lthumb 14.7756 56.6365
rfemur 18.7153 7.02047 30.9229
rtibia 15.4512
rfoot -17.0327 -4.33228
rtoes -12.0143
lfemur -37.2453 -3.77806 -9.08993
ltibia 18.5008
lfoot -7.90679 11.8443
ltoes -5.91172
36
root -9.19761 16.6813 -23.2295 2.02973 -11.0178 -6.02586
lowerback 5.72337 1.66248 2.61273
upperback -1.17476 2.56402 3.64438
thorax -4.48525 1.25118 2.06783
lowerneck -16.6849 -2.79906 -9.47468
upperneck 19.7881 -3.01626 7.20756
head 9.23119 -1.3473 3.68016
rclavicle -1.89156e-014 -1.47101e-014
rhumerus -24.2753 -4.05814 -79.7431
rradius 39.5608
rwrist 2.47135
rhand -17.186 10.1366
rfingers 7.12502
rthumb 9.05587 -19.649
lclavicle -1.89156e-014 -1.47101e-014
lhumerus -42.9721 14.1401 82.9103
lradius 18.709
lwrist -15.2711
lhand -11.7238 26.6126
lfingers 7.12502
lthumb 14.3231 56.0986
rfemur 19.851 6.97357 30.4246
rtibia 15.7019
rfoot -16.1777 -3.56655
rtoes -13.0336
lfemur -36.9353 -2.37295 -10.3205
ltibia 19.4031
lfoot -7.02683 10.2524
ltoes -5.18026
37
root -9.18872 16.6563 -22.9327 1.66433 -11.012 -5.83562
lowerback 5.66986 1.65225 2.54775
upperback -1.05723 2.53194 3.51875
thorax -4.32835 1.23648 1.97916
lowerneck -16.5261 -2.80374 -9.42562
upperneck 19.695 -3.05767 7.25281
head 9.17336 -1.36012 3.68066
rclavicle -2.16365e-014 -4.13472e-014
rhumerus -24.2507 -4.72118 -79.7138
rradius 39.7748
rwrist 2.38718
rhand -17.1409 8.61593
rfingers 7.12502
rthumb 9.09936 -21.1678
lclavicle -2.16365e-014 -4.13472e-014
lhumerus -43.2544 14.7348 82.379
lradius 18.3348
lwrist -15.5651
lhand -11.1839 27.1308
lfingers 7.12502
lthumb 14.8433 56.5791
rfemur 20.8133 6.91727 30.0158
rtibia 16.2959
rfoot -15.3057 -2.62604
rtoes -14.188
lfemur -36.6206 -1.82087 -11.029
ltibia 20.5126
lfoot -6.72689 9.18535
ltoes -4.03328
38
root -9.1787 16.6369 -22.6295 1.14248 -10.9433 -5.32736
lowerback 5.81571 1.67855 2.09373
upperback -0.977398 2.53177 3.36966
thorax -4.3397 1.24613 2.07513
lowerneck -16.4617 -2.91152 -9.24541
upperneck 19.5977 -3.19954 6.99892
head 9.13455 -1.44045 3.54083
rclavicle 9.83984e-015 2.66371e-014
rhumerus -24.4205 -6.08165 -79.2078
rradius 39.0491
rwrist 3.00103
rhand -16.2056 12.2039
rfingers 7.12502
rthumb 10.0018 -17.5385
lclavicle 9.83984e-015 2.66371e-014
lhumerus -43.4885 15.4388 81.7974
lradius 17.7877
lwrist -16.3479
lhand -11.134 27.0909
lfingers 7.12502
lthumb 14.8914 56.5356
rfemur 21.7058 6.80353 29.2855
rtibia 17.2742
rfoot -14.2393 -1.81517
rtoes -15.2217
lfemur -36.078 -1.65159 -11.984
ltibia 21.709
lfoot -6.92681 7.96559
ltoes -4.22672
39
root -9.16835 16.619 -22.3248 0.699626 -10.9193 -4.72839
lowerback 6.01299 1.75386 1.4582
upperback -1.06668 2.59299 3.26358
thorax -4.56847 1.29122 2.30856
lowerneck -16.3122 -3.06144 -9.34297
upperneck 19.7717 -3.3809 6.89544
head 9.18448 -1.54799 3.50063
rclavicle 1.03756e-014 6.75868e-015
rhumerus -24.917 -7.17818 -78.6805
rradius 38.5884
rwrist 3.61264
rhand -16.155 13.8628
rfingers 7.12502
rthumb 10.0506 -15.8772
lclavicle 1.03756e-014 6.75868e-015
lhumerus -43.8897 15.6916 81.5672
lradius 17.3066
lwrist -16.9373
lhand -11.4278 26.5462
lfingers 7.12502
lthumb 14.6083 56.0117
rfemur 22.3216 6.78935 28.4849
rtibia 18.4712
rfoot -12.9026 -1.05652
rtoes -16.0419
lfemur -35.6016 -1.64497 -12.9938
ltibia 23.0198
lfoot -6.95398 6.34891
ltoes -6.55749
40
root -9.15638 16.6114 -22.0072 0.494987 -10.917 -4.44025
lowerback 5.8801 1.92587 1.32373
upperback -1.06719 2.80027 3.07954
thorax -4.49696 1.39546 2.17599
lowerneck -16.6058 -3.21021 -9.31793
upperneck 20.0885 -3.60315 6.98918
head 9.36998 -1.63698 3.50498
rclavicle -3.99459e-014 -1.82882e-014
rhumerus -25.3127 -8.37078 -78.3317
rradius 38.5955
rwrist 3.38851
rhand -16.106 13.4027
rfingers 7.12502
rthumb 10.0979 -16.335
lclavicle -3.99459e-014 -1.82882e-014
lhumerus -43.8646 15.5091 81.477
lradius 16.7915
lwrist -17.6411
lhand -11.2197 26.748
lfingers 7.12502
lthumb 14.8089 56.1988
rfemur 22.5353 6.80535 27.9684
rtibia 19.8942
rfoot -11.2957 -0.224337
rtoes -16.3561
lfemur -35.37 -1.69845 -13.6399
ltibia 24.3809
lfoot -6.10795 4.13879
ltoes -10.1189
41
root -9.14284 16.6275 -21.6866 0.322014 -10.8738 -4.12917
lowerback 5.60941 2.02453 1.19069
upperback -0.96614 2.90261 2.89908
thorax -4.23848 1.44788 2.06388
lowerneck -16.9327 -3.26186 -9.31707
upperneck 20.3045 -3.68392 7.11458
head 9.51543 -1.65636 3.54137
rclavicle -4.54073e-014 -7.55382e-015
rhumerus -25.5163 -9.16617 -78.1208
rradius 38.6873
rwrist 2.60127
rhand -15.8251 12.8148
rfingers 7.12502
rthumb 10.3688 -16.9095
lclavicle -4.54073e-014 -7.55382e-015
lhumerus -43.5404 15.287 81.5717
lradius 16.3006
lwrist -17.8844
lhand -10.7844 27.6683
lfingers 7.12502
lthumb 15.2281 57.0879
rfemur 22.4128 6.76702 27.4013
rtibia 21.7624
rfoot -9.34317 0.647627
rtoes -16.9949
lfemur -35.3325 -1.36274 -14.4636
ltibia 25.821
lfoot -4.40274 1.40322
ltoes -12.7092
42
root -9.12446 16.6495 -21.3757 0.121564 -10.7642 -3.77839
lowerback 5.43241 1.992 1.06694
upperback -0.90518 2.83648 2.72629
thorax -4.06985 1.4162 1.96724
lowerneck -16.8682 -3.3214 -9.28484
upperneck 20.2079 -3.77944 7.12123
head 9.47812 -1.6981 3.52374
rclavicle 6.8736e-015 3.10104e-014
rhumerus -25.7461 -9.72874 -78.0262
rradius 38.7368
rwrist 2.07458
rhand -15.5068 12.4145
rfingers 7.12502
rthumb 10.6759 -17.2943
lclavicle 6.8736e-015 3.10104e-014
lhumerus -43.2783 15.5809 81.3209
lradius 15.6994
lwrist -18.3514
lhand -10.6975 27.6879
lfingers 7.12502
lthumb 15.3119 57.1011
rfemur 22.0255 6.55145 26.7019
rtibia 23.9406
rfoot -6.35386 1.71797
rtoes -16.0778
lfemur -35.4028 -0.833654 -15.368
ltibia 27.3435
lfoot -2.57583 -0.999541
ltoes -18.0427
43
root -9.10224 16.6498 -21.0647 -0.0672122 -10.5577 -3.22595
lowerback 5.3606 1.9909 0.756998
upperback -1.09297 2.80916 2.49947
thorax -4.22649 1.40784 1.90773
lowerneck -16.48 -3.41484 -9.19799
upperneck 20.1933 -3.94234 7.0048
head 9.41222 -1.78724 3.44726
rclavicle -2.81933e-014 6.36111e-015
rhumerus -26.4711 -10.4 -77.7194
rradius 38.7248
rwrist 1.56136
rhand -15.2013 12.5383
rfingers 7.12502
rthumb 10.9706 -17.1551
lclavicle -2.81933e-014 6.36111e-015
lhumerus -43.56 15.8548 80.8389
lradius 15.2447
lwrist -19.2061
lhand -11.0246 26.7141
lfingers 7.12502
lthumb 14.9968 56.1511
rfemur 21.3071 6.30583 25.7399
rtibia 26.5683
rfoot -2.50526 2.76168
rtoes -13.8111
lfemur -35.4579 -0.740112 -16.3509
ltibia 28.889
lfoot -0.960918 -3.14386
ltoes -14.2324
44
root -9.08268 16.6624 -20.753 -0.119523 -10.4804 -2.63769
lowerback 5.11634 2.09809 0.392933
upperback -1.3416 2.91813 2.21711
thorax -4.35293 1.46871 1.8137
lowerneck -16.2996 -3.47345 -9.27109
upperneck 20.5519 -4.11223 7.31029
head 9.52723 -1.84457 3.55217
rclavicle 2.71962e-014 -1.63003e-014
rhumerus -27.3679 -11.2647 -77.3755
rradius 38.6373
rwrist 1.13269
rhand -15.3864 12.9391
rfingers 7.12502
rthumb 10.792 -16.7636
lclavicle 2.71962e-014 -1.63003e-014
lhumerus -43.8815 15.4752 80.7064
lradius 15.2017
lwrist -19.8363
lhand -10.6508 26.8044
lfingers 7.12502
lthumb 15.3568 56.2141
rfemur 20.0867 6.23255 24.7315
rtibia 29.7378
rfoot 1.6266 3.5431
rtoes -12.5812
lfemur -35.3883 -1.00995 -17.1579
ltibia 30.3426
lfoot -0.0347181 -8.24677
ltoes -32.5515
45
root -9.06671 16.6646 -20.4499 -0.264613 -10.4712 -2.06175
lowerback 4.90996 2.111 -0.0477351
upperback -1.46343 2.89865 2.03372
thorax -4.37436 1.46915 1.87762
lowerneck -16.0399 -3.46645 -9.50469
upperneck 20.8116 -4.13587 7.55058
head 9.58224 -1.85475 3.67993
rclavicle -1.18401e-014 7.95139e-015
rhumerus -27.9883 -11.5243 -77.2108
rradius 38.5597
rwrist 0.711891
rhand -15.6604 12.3662
rfingers 7.12502
rthumb 10.5278 -17.3502
lclavicle -1.18401e-014 7.95139e-015
lhumerus -44.1184 15.715 80.3721
lradius 15.0988
lwrist -20.4796
lhand -10.4181 26.5906
lfingers 7.12502
lthumb 15.581 55.983
rfemur 18.6508 6.37089 23.8307
rtibia 33.3634
rfoot 5.28544 3.94249
rtoes -12.0203
lfemur -35.1805 -1.17506 -17.9778
ltibia 31.7868
lfoot 2.93863 -5.80142
ltoes -1.26056
46
root -9.05731 16.6706 -20.1625 -0.687937 -10.4017 -1.45203
lowerback 5.30329 2.15931 -0.646925
upperback -1.4686 2.91857 1.86163
thorax -4.62448 1.49362 2.01848
lowerneck -16.0995 -3.60541 -9.52235
upperneck 20.9073 -4.30712 7.47318
head 9.64282 -1.9437 3.63359
rclavicle -4.84289e-014 -1.11319e-014
rhumerus -28.5395 -12.1722 -77.006
rradius 38.4176
rwrist 0.707611
rhand -15.7568 12.3387
rfingers 7.12502
rthumb 10.4347 -17.3824
lclavicle -4.84289e-014 -1.11319e-014
lhumerus -44.0832 16.0164 79.9834
lradius 14.9264
lwrist -21.1627
lhand -10.6873 26.1006
lfingers 7.12502
lthumb 15.3217 55.513
rfemur 17.2093 6.45315 22.9574
rtibia 37.1713
rfoot 8.71555 4.36333
rtoes -8.08051
lfemur -34.6524 -1.12824 -18.9644
ltibia 33.1895
lfoot -1.49033 -8.19599
ltoes -11.8116
